<svg xmlns="http://www.w3.org/2000/svg" viewBox="0 0 433.39 181.63"><defs><style>.cls-1{fill:#fff;}</style></defs><g id="Layer_2" data-name="Layer 2"><g id="Layer_1-2" data-name="Layer 1"><path class="cls-1" d="M72.55,6.46a57.84,57.84,0,0,1,14.37,6A85,85,0,0,1,103,24.31a122,122,0,0,1,13.6,14.1A137.71,137.71,0,0,1,127,53.05c2.86,4.52,3.31,5.64,9.78,17.22,8.58,15.35,10.84,18.82,12.07,20.67,4.74,7.1,7.18,10.62,11.87,15.12a35.66,35.66,0,0,0,13.78,9.12,31.87,31.87,0,0,0,14.37,1.91c11.39-1.44,18.63-13.13,18.63-13.13a29.31,29.31,0,0,1-6.87.7,27.77,27.77,0,0,1-10-2.3c-9.32-4-14.62-11.12-24.67-27.44-6-9.68-15.36-24.87-21.85-34.39-.44-.66-1.16-1.7-2.12-3a125.61,125.61,0,0,0-11.18-13.33c-7.58-7.48-16.31-11.84-20.31-13.8A85.71,85.71,0,0,0,99.79,6.05,99.72,99.72,0,0,0,87.9,2.89c-1.05-.22-2.13-.43-3.24-.61s-2-.34-3.08-.48l-1.53-.21A68.88,68.88,0,0,0,72.36,1,74.31,74.31,0,0,0,31.58,11.8,56.53,56.53,0,0,1,50.45,5.53a56.7,56.7,0,0,1,22.1.93"/><path class="cls-1" d="M426.93,86.78c-7.16-12.58-17.9-18.19-25.19-22-14.77-7.72-28.16-8.44-35.37-8.94-21.23-1.44-34.24,4.09-44.53,7.77-13.93,5-23.68,11-38.34,20-6.74,4.14-12.71,8.29-24.64,16.56-1.31-1.91-2.54-3.75-3.73-5.53-4.46-6.71-5.17-8.38-15.3-25.57-13.45-22.82-17-27.95-18.9-30.7C213.54,27.84,209.76,22.65,202.56,16c-4.09-3.74-10.21-9.68-21.06-13.24C176,1,168.06-.83,159.8.4,142.71,3,132.23,20.82,132.23,20.82a44,44,0,0,1,10.31-1.29,41.81,41.81,0,0,1,15.12,3.11C171.82,28.3,180,38.87,195.73,63.08c9.3,14.36,24,36.88,34.08,51,.69,1,1.81,2.51,3.28,4.45,0,0,0,0,0,0-2.28,1.61-4.8,3.4-7.92,5.55-13.08,9-21.89,15.06-34.3,22.12-11.45,6.52-24.36,13.78-42.54,20.15-10.32,3.62-23.51,8.15-41.54,9.88-11.65,1.12-24.33,2.33-40.21-1.82-7.32-1.91-23.35-6.29-38.13-20.42a78.78,78.78,0,0,1-20.2-31.49c-1.94-6-7.12-22.65-.93-42.36a64.31,64.31,0,0,1,18.89-29.1C31,47,39.28,40.31,53.53,38.21a39.57,39.57,0,0,1,19.63,2.46l.3.14c-.37,0-.74-.05-1.11-.05a18,18,0,1,0,18,18,17.66,17.66,0,0,0-.28-3,1.28,1.28,0,0,1,.07.28,20.93,20.93,0,0,0-1.57-5.52,27,27,0,0,0-4.41-6.94l0-.06a29.61,29.61,0,0,0-12.55-8.12C61.21,32,52,34,48,34.75,36.06,37,28.31,43.6,24,47.24A66.85,66.85,0,0,0,9.15,65.08,69.36,69.36,0,0,0,1.76,84,72.55,72.55,0,0,0,.49,108.44C2.62,126.62,11.1,139.07,15,144.62A86.51,86.51,0,0,0,41,169.1C56.18,178.2,70.23,179.92,79.7,181c13.45,1.49,24,.13,31.75-.86a170.08,170.08,0,0,0,28.87-6.45,212.75,212.75,0,0,0,28.83-11.11,276.58,276.58,0,0,0,25-13.16c7.74-4.48,13.52-8.25,18.82-11.71,6.44-4.2,11.47-7.67,20.34-13.92.88-.61,1.71-1.2,2.5-1.77a171.44,171.44,0,0,0,14.6,16.19c11.66,11,25,17.26,31,20.08a146,146,0,0,0,43.78,11.9c12.33,1.41,31.54,3.44,54.44-3.61,11.66-3.58,28.81-8.86,41.57-24.93,3.85-4.86,10.95-14.05,12-27.78a47.18,47.18,0,0,0-6.32-27.06m-7,49.47c-6.15,8.93-13.58,13.39-19.54,17a87.64,87.64,0,0,1-61.71,9.62,87.14,87.14,0,0,1-21.85-8.6c-10.92-5.69-18.07-11.68-24.65-17.21a183.38,183.38,0,0,1-20.93-20.75c-3.92-4.56-7.09-8.7-9.84-12.53l3.2-2.23C282.93,88.8,291.1,84,294.91,81.83c9.57-5.48,15.53-8.38,17.11-9.11,8.77-4.15,20.72-8.72,26.07-10a99.52,99.52,0,0,1,29.77-2.41A83.14,83.14,0,0,1,397,67.45c5.82,2.65,12,5.57,18.64,12.15,3.28,3.23,11.05,11.62,12.89,24.75,2.25,16.09-6.1,28.22-8.64,31.9"/></g></g></svg>